<svg width="33" height="34" viewBox="0 0 33 34" fill="none" xmlns="http://www.w3.org/2000/svg">
<path d="M4.68519 17.2481C4.68519 10.8338 9.82382 5.64983 16.1432 5.64983C22.4626 5.64983 27.6013 10.8338 27.6013 17.2481C27.6013 23.6624 22.4626 28.8464 16.1432 28.8464C9.82382 28.8464 4.68519 23.6624 4.68519 17.2481ZM16.1432 1.43555C7.49494 1.43555 0.5 8.52391 0.5 17.2481C0.5 25.9723 7.49494 33.0607 16.1432 33.0607C24.7915 33.0607 31.7865 25.9723 31.7865 17.2481C31.7865 8.52391 24.7915 1.43555 16.1432 1.43555Z" fill="#F8D000" stroke="#F8D000" stroke-miterlimit="10"/>
<path d="M22.4944 11.0059L8.94977 14.6768L14.5263 17.7887L11.1491 21.2044L12.387 22.4564L15.7702 19.0285L18.8649 24.7052L22.4944 11.0059Z" fill="#F8D000"/>
</svg>
