<svg width="27" height="28" viewBox="0 0 27 28" fill="none" xmlns="http://www.w3.org/2000/svg">
<path fill-rule="evenodd" clip-rule="evenodd" d="M4.34814 13.9986C4.34814 9.0838 8.2842 5.11998 13.1146 5.11998C17.945 5.11998 21.881 9.0838 21.881 13.9986C21.881 18.9134 17.945 22.8772 13.1146 22.8772C8.2842 22.8772 4.34814 18.9134 4.34814 13.9986ZM13.1146 0.948547C5.97074 0.948547 0.199997 6.80265 0.199997 13.9986C0.199997 21.1946 5.97074 27.0487 13.1146 27.0487C20.2584 27.0487 26.0292 21.1946 26.0292 13.9986C26.0292 6.80265 20.2584 0.948547 13.1146 0.948547Z" fill="#0B0D27"/>
<path d="M18.1955 9.00479L7.35981 11.9416L11.821 14.431L9.11929 17.1636L10.1096 18.1652L12.8161 15.4229L15.2919 19.9643L18.1955 9.00479Z" fill="#0B0D27"/>
</svg>
