<svg width="24" height="24" viewBox="0 0 24 24" fill="none" xmlns="http://www.w3.org/2000/svg">
<path d="M12 10.8335V7.3335L16.6667 12.0002L12 16.6668V13.1668H7.33334V10.8335H12ZM12 0.333496C18.44 0.333496 23.6667 5.56016 23.6667 12.0002C23.6667 18.4402 18.44 23.6668 12 23.6668C5.56001 23.6668 0.333344 18.4402 0.333344 12.0002C0.333344 5.56016 5.56001 0.333496 12 0.333496ZM12 21.3335C17.1567 21.3335 21.3333 17.1568 21.3333 12.0002C21.3333 6.8435 17.1567 2.66683 12 2.66683C6.84334 2.66683 2.66668 6.8435 2.66668 12.0002C2.66668 17.1568 6.84334 21.3335 12 21.3335Z" fill="white"/>
</svg>
